<svg xmlns="http://www.w3.org/2000/svg" width="400" height="400" viewBox="0 0 400 400" role="img" aria-labelledby="title"><title id="title">Strategies skill</title><defs><linearGradient id="bg" x1="0" y1="0" x2="1" y2="1"><stop stop-color="#F4EEFF"/><stop offset="1" stop-color="#D8F6F2"/></linearGradient><radialGradient id="shell" cx="34%" cy="28%" r="76%"><stop stop-color="#FFD8C8"/><stop offset=".58" stop-color="#FF977D"/><stop offset="1" stop-color="#E66172"/></radialGradient></defs><rect width="400" height="400" rx="92" fill="url(#bg)"/><circle cx="190" cy="202" r="146" fill="#BDE9E5" opacity=".55"/><path d="M290 194c0 70-54 119-119 119-55 0-100-39-100-91 0-47 37-83 81-83 39 0 68 28 68 63 0 29-23 50-51 50-23 0-40-17-40-38 0-17 13-30 29-30 12 0 22 9 22 20" fill="none" stroke="url(#shell)" stroke-width="40" stroke-linecap="round"/><path d="M281 159c-20-38-57-59-98-55M245 125c-24 9-40 28-46 52M290 194c-15-19-38-30-63-29M267 265c-11-23-31-37-55-41M188 292c7-25 2-47-12-64M106 247c24-4 43-17 55-36M94 173c24 9 45 7 63-7" fill="none" stroke="#B35C83" stroke-width="9" stroke-linecap="round" opacity=".75"/><circle cx="149" cy="174" r="28" fill="#FFF9F2"/><circle cx="215" cy="174" r="28" fill="#FFF9F2"/><circle cx="155" cy="180" r="10" fill="#263B55"/><circle cx="221" cy="180" r="10" fill="#263B55"/><circle cx="158" cy="176" r="3" fill="white"/><circle cx="224" cy="176" r="3" fill="white"/><path d="M159 220c17 14 42 14 59 0" fill="none" stroke="#263B55" stroke-width="8" stroke-linecap="round"/><circle cx="304" cy="302" r="48" fill="#8F76C7" stroke="#FFF9F2" stroke-width="10"/><path d="M279 282h25v-12m0 12 24 22m-24-22v42m0-18-24 22" fill="none" stroke="#FFF9F2" stroke-width="9" stroke-linecap="round" stroke-linejoin="round"/><circle cx="279" cy="282" r="6" fill="#FFF9F2"/><circle cx="280" cy="326" r="6" fill="#FFF9F2"/><circle cx="328" cy="304" r="6" fill="#FFF9F2"/></svg>
